<?xml version="1.0" standalone="no"?>
<!DOCTYPE svg PUBLIC "-//W3C//DTD SVG 20010904//EN"
 "http://www.w3.org/TR/2001/REC-SVG-20010904/DTD/svg10.dtd">
<svg version="1.0" xmlns="http://www.w3.org/2000/svg"
 width="1912.000000pt" height="1912.000000pt" viewBox="0 0 1912.000000 1912.000000"
 preserveAspectRatio="xMidYMid meet">
<metadata>
Created by potrace 1.11, written by Peter Selinger 2001-2013
</metadata>
<g transform="translate(0.000000,1912.000000) scale(0.100000,-0.100000)"
fill="#000000" stroke="none">
<path d="M3640 13765 c0 -6 -30 -10 -72 -9 -40 0 -76 -1 -81 -4 -9 -4 853
-862 867 -862 5 0 6 -3 3 -6 -3 -4 5 -15 18 -26 14 -11 25 -22 25 -26 0 -4
-429 -7 -952 -7 -717 1 -972 -2 -1032 -12 -43 -7 -81 -12 -85 -11 -3 0 -9 -1
-13 -2 -12 -4 -20 -5 -73 -15 -53 -9 -62 -11 -70 -15 -6 -3 -9 -4 -55 -14 -53
-11 -165 -54 -267 -101 -89 -42 -233 -122 -243 -135 -3 -4 -20 -15 -37 -25
-18 -11 -33 -23 -33 -27 0 -4 -4 -8 -10 -8 -10 0 -30 -16 -119 -94 -124 -109
-243 -248 -316 -365 -5 -9 -19 -29 -30 -46 -12 -16 -32 -52 -45 -80 -14 -27
-28 -51 -32 -53 -5 -2 -8 -8 -8 -13 0 -4 -13 -38 -30 -74 -16 -36 -30 -69 -30
-74 0 -4 -7 -21 -15 -38 -8 -16 -16 -38 -18 -49 -2 -10 -7 -26 -10 -34 -12
-32 -37 -130 -39 -154 -1 -14 -5 -26 -8 -26 -3 0 -6 -8 -7 -17 0 -10 -3 -40
-7 -68 -3 -27 -9 -77 -13 -110 -10 -84 -9 -1558 1 -1625 5 -30 10 -66 12 -80
2 -14 6 -43 9 -65 2 -22 12 -67 21 -100 9 -33 17 -64 18 -70 2 -5 9 -30 16
-55 7 -25 13 -48 12 -52 -1 -5 3 -8 8 -8 5 0 9 -3 8 -7 -4 -13 42 -122 94
-221 44 -85 141 -240 158 -252 4 -3 11 -12 16 -22 5 -9 32 -42 59 -73 43 -50
78 -85 199 -200 69 -66 261 -191 386 -252 139 -68 427 -162 451 -147 5 3 9 2
9 -3 0 -4 12 -9 28 -10 15 -2 45 -5 68 -6 23 -2 45 -6 50 -9 5 -2 34 -6 64 -7
91 -6 3800 -3 3860 3 86 8 195 24 222 32 17 5 45 11 88 20 33 7 188 60 237 81
21 9 40 17 43 18 15 5 146 70 150 75 3 3 32 22 65 40 33 19 65 38 70 42 6 5
33 25 61 46 68 49 168 137 213 186 20 21 50 53 67 71 41 42 154 193 154 204 0
5 3 11 8 13 32 14 193 354 191 402 0 5 3 12 8 15 12 8 59 194 72 281 6 36 13
85 17 110 4 25 8 378 9 785 1 560 5 755 14 800 13 60 58 167 73 173 4 2 8 10
8 18 0 18 148 164 166 164 8 0 14 4 14 9 0 10 104 55 170 73 34 9 343 12 1290
13 685 0 1273 -3 1307 -7 62 -7 195 -53 201 -70 2 -4 8 -8 14 -8 11 0 70 -46
118 -91 80 -77 147 -227 156 -350 2 -39 7 -75 10 -80 3 -5 0 -9 -7 -9 -10 0
-10 -3 -1 -12 7 -7 8 -17 2 -28 -5 -9 -5 -22 -1 -29 5 -7 5 -27 2 -44 -4 -18
-4 -51 -1 -74 4 -23 3 -48 -1 -55 -4 -7 -3 -18 3 -25 7 -9 7 -13 -1 -13 -7 0
-8 -8 -3 -22 5 -13 6 -36 2 -53 -3 -16 -3 -49 1 -72 3 -23 2 -48 -2 -55 -4 -7
-3 -18 3 -25 7 -9 7 -13 -1 -13 -7 0 -8 -8 -3 -22 5 -13 6 -36 2 -53 -3 -16
-3 -49 1 -72 3 -23 2 -48 -2 -55 -4 -7 -3 -18 3 -25 7 -9 7 -13 -1 -13 -7 0
-8 -8 -3 -22 5 -13 6 -36 2 -53 -3 -16 -3 -49 1 -72 3 -23 2 -48 -2 -55 -4 -7
-3 -18 3 -25 7 -9 7 -13 -1 -13 -7 0 -8 -8 -1 -24 5 -13 6 -26 3 -29 -3 -3 -4
-32 -3 -64 2 -67 2 -70 -3 -103 -2 -14 -1 -29 2 -34 2 -5 5 -44 6 -85 1 -42 5
-96 9 -121 4 -25 10 -58 12 -75 2 -16 9 -51 15 -76 6 -26 12 -55 14 -65 2 -11
4 -19 5 -19 1 0 3 -8 5 -17 3 -18 23 -84 32 -108 3 -8 7 -19 9 -25 39 -130
212 -447 270 -496 8 -6 14 -15 14 -19 0 -17 169 -193 256 -268 76 -64 153
-122 163 -122 6 0 11 -4 11 -10 0 -5 4 -10 10 -10 5 0 34 -16 64 -35 30 -19
60 -35 66 -35 5 0 10 -5 10 -10 0 -6 3 -10 8 -9 16 2 52 -14 52 -24 0 -6 3 -8
6 -5 3 4 31 -6 62 -22 54 -26 258 -94 312 -104 14 -2 32 -7 40 -10 8 -3 33 -8
55 -10 22 -3 51 -7 65 -10 14 -3 52 -8 85 -11 72 -8 4934 -12 4944 -5 4 3 7
284 7 626 l0 621 -2420 0 c-1332 0 -2432 3 -2446 6 -120 25 -224 74 -294 139
-11 10 -24 18 -30 18 -5 0 -7 3 -3 6 3 3 -10 22 -28 42 -34 35 -112 172 -99
172 3 0 1 6 -5 14 -7 8 -13 30 -15 48 -2 19 -5 39 -8 44 -3 5 -7 331 -7 724
-2 712 -3 789 -16 865 -3 22 -8 56 -10 75 -2 19 -8 50 -14 68 -5 17 -8 32 -6
32 2 0 -2 18 -10 40 -8 22 -13 40 -11 40 14 0 -79 238 -135 348 -54 107 -144
252 -168 272 -3 3 -19 23 -35 45 -66 90 -277 285 -392 363 -98 66 -278 162
-304 162 -5 0 -10 5 -10 10 0 6 -5 10 -12 10 -6 0 -48 13 -92 30 -45 16 -90
31 -101 32 -11 2 -24 6 -30 9 -9 6 -97 24 -210 44 -16 3 -64 9 -105 12 -103
10 -2639 9 -2720 -1 -36 -4 -76 -9 -90 -11 -14 -3 -45 -7 -70 -10 -24 -4 -48
-9 -52 -11 -7 -5 -26 -9 -73 -18 -5 -1 -16 -5 -22 -9 -7 -5 -13 -6 -13 -3 0 6
-153 -46 -205 -69 -80 -36 -202 -98 -216 -111 -8 -8 -20 -14 -25 -14 -20 -1
-212 -143 -287 -214 -27 -26 -53 -46 -58 -46 -5 0 -9 -4 -9 -9 0 -5 -20 -31
-45 -58 -25 -26 -56 -61 -68 -77 -12 -16 -30 -37 -39 -47 -10 -11 -16 -19 -13
-19 5 0 -18 -29 -42 -55 -7 -8 -13 -18 -13 -24 0 -6 -4 -11 -10 -11 -5 0 -10
-4 -10 -10 0 -5 -17 -38 -38 -72 -120 -196 -213 -484 -240 -738 -5 -47 -10
-404 -11 -795 0 -390 -3 -724 -5 -740 -18 -157 -125 -324 -260 -404 -23 -14
-43 -28 -46 -32 -7 -9 -135 -49 -180 -56 -50 -7 -3675 -7 -3735 1 -78 9 -108
16 -122 28 -7 6 -13 8 -13 4 0 -8 -94 39 -134 68 -115 81 -208 229 -233 370
-3 17 -6 351 -6 741 -1 699 2 781 32 830 3 6 6 12 6 15 0 3 14 32 30 65 44 87
157 196 249 240 39 19 87 37 106 40 18 3 38 9 44 13 12 7 1852 12 1874 4 7 -2
-188 -204 -443 -460 -250 -250 -455 -458 -455 -461 0 -3 394 -6 876 -5 l876 0
467 467 c257 257 473 467 480 467 7 0 10 4 7 8 -2 4 132 144 299 311 l303 303
-301 302 c-166 165 -301 304 -300 308 2 4 -6 12 -18 18 -11 7 -226 217 -478
469 l-457 457 -157 -1 c-98 0 -157 4 -157 10 0 6 -3 6 -8 0 -9 -14 -312 -14
-312 0 0 6 -3 6 -8 0 -9 -14 -304 -14 -314 0 -5 7 -8 7 -8 0 0 -14 -310 -14
-310 0 0 6 -3 6 -8 0 -9 -14 -304 -14 -314 0 -5 7 -8 7 -8 0z"/>
<path d="M12550 12823 c0 -2 53 -56 118 -121 111 -111 182 -189 182 -198 0 -3
11 -17 25 -32 28 -29 146 -203 182 -267 91 -159 180 -367 235 -550 l24 -79
1705 -1 1704 -2 50 -26 c45 -23 82 -53 110 -89 23 -29 45 -68 39 -68 -4 0 -1
-7 6 -15 18 -21 18 -142 0 -185 -25 -62 -65 -112 -116 -148 -64 -44 -101 -50
-344 -50 -127 -1 -235 -4 -240 -7 -6 -3 -10 -3 -10 2 0 9 -454 8 -470 -2 -5
-3 -10 -3 -10 2 0 9 -455 8 -470 -2 -5 -3 -10 -3 -10 2 0 9 -454 8 -470 -2 -5
-3 -10 -3 -10 2 0 9 -134 8 -149 -2 -6 -3 -11 -3 -11 2 0 9 -454 8 -470 -2 -5
-3 -10 -3 -10 2 0 9 -134 8 -149 -2 -6 -3 -11 -3 -11 2 0 9 -454 8 -470 -2 -5
-3 -10 -3 -10 2 0 4 -24 8 -54 8 -30 0 -52 -3 -50 -7 2 -4 1 -9 -3 -11 -6 -4
-9 -1176 -4 -1230 1 -10 3426 -4 3461 6 13 4 42 9 65 12 22 4 58 11 80 17 22
6 54 12 70 15 17 3 35 8 40 13 11 8 57 20 65 17 3 -1 18 6 33 16 15 9 27 15
27 13 0 -16 253 125 321 178 14 12 36 28 49 36 21 14 37 28 111 96 50 46 140
144 132 144 -4 0 2 9 13 20 30 30 41 44 87 117 37 56 107 184 112 203 1 3 7
19 14 35 7 17 12 31 12 32 0 2 8 22 18 45 19 45 57 188 65 248 3 19 8 46 12
60 10 43 13 322 3 390 -5 36 -11 79 -14 96 -11 86 -76 294 -111 357 -8 15 -12
27 -7 27 4 0 4 4 -2 8 -5 4 -21 30 -35 57 -120 245 -367 494 -630 637 -83 45
-262 117 -295 119 -3 0 -23 6 -46 14 -22 8 -43 14 -47 14 -4 -1 -9 0 -12 1
-12 4 -48 11 -95 16 -27 3 -54 9 -60 12 -10 7 -4275 11 -4275 5z"/>
<path d="M770 6970 c-4 -3 -8 -337 -8 -742 l0 -737 173 0 c154 1 173 2 177 17
2 9 3 137 3 285 l-1 267 577 0 577 0 1 163 c0 89 -3 167 -7 172 -5 8 -192 11
-577 11 l-570 -1 -1 113 -1 112 613 0 613 0 3 118 c2 64 1 142 -2 172 l-5 55
-778 0 c-429 0 -783 -2 -787 -5z"/>
<path d="M2678 6972 c-14 -3 -16 -77 -16 -738 l0 -734 172 0 173 0 -1 563 0
562 551 3 552 2 25 -22 c14 -13 29 -41 35 -65 9 -45 6 -137 -6 -156 -4 -7 -8
-15 -8 -19 0 -3 -11 -15 -25 -25 -24 -17 -51 -18 -477 -18 -249 1 -453 -1
-453 -4 0 -4 14 -22 31 -41 50 -57 152 -171 179 -200 14 -15 52 -58 85 -95 33
-38 69 -79 80 -91 11 -12 45 -50 75 -84 30 -33 66 -74 80 -89 14 -15 54 -60
90 -100 122 -137 76 -121 348 -121 157 0 232 4 222 10 -8 5 -12 10 -9 10 3 0
-12 19 -35 43 -23 24 -75 81 -116 127 -73 81 -123 136 -208 230 -46 50 -51 62
-24 59 9 -1 19 -1 22 0 3 1 43 3 90 5 146 6 238 58 318 181 95 144 111 389 37
560 -18 42 -67 117 -94 144 -18 18 -83 65 -91 67 -3 0 -18 6 -33 12 -15 7 -42
15 -60 18 -31 7 -1478 12 -1509 6z"/>
<path d="M5287 6974 c-1 -1 -26 -4 -55 -7 -29 -3 -60 -11 -68 -18 -8 -6 -14
-8 -14 -4 0 13 -95 -48 -130 -85 -57 -59 -90 -101 -90 -114 0 -7 -4 -16 -9
-21 -6 -6 -18 -37 -27 -70 -15 -53 -17 -127 -18 -607 l-2 -548 172 0 172 0 0
199 c0 110 3 204 7 210 3 6 3 11 -2 11 -9 0 -8 282 1 305 3 8 2 15 -2 15 -7 0
-7 188 1 293 8 104 -31 97 559 97 495 0 509 -1 528 -20 11 -11 20 -23 21 -27
1 -16 7 -38 14 -55 4 -11 3 -18 -4 -18 -6 0 -8 -6 -6 -12 9 -25 11 -98 3 -98
-5 0 -5 -7 0 -16 4 -8 6 -28 4 -45 l-4 -29 -448 0 c-419 0 -449 -1 -453 -17
-3 -10 -4 -88 -3 -173 l1 -155 455 0 455 0 2 -190 c1 -105 2 -209 2 -233 l1
-42 173 2 172 3 -1 552 c0 428 -3 555 -13 567 -7 8 -10 19 -7 24 11 18 -65
152 -115 201 -53 53 -127 101 -159 104 -11 1 -20 4 -20 7 0 3 -8 7 -17 8 -20
2 -1074 8 -1076 6z"/>
<path d="M7057 6969 c-9 -6 -12 -171 -10 -726 1 -395 2 -724 2 -730 1 -10 42
-13 171 -13 l170 0 2 446 3 447 50 -72 c28 -40 55 -78 60 -84 6 -7 23 -32 40
-57 16 -25 32 -47 35 -50 3 -3 64 -88 135 -190 71 -102 135 -191 142 -198 7
-7 13 -17 13 -21 0 -7 11 -22 50 -68 5 -7 10 -15 10 -17 0 -9 72 -101 81 -104
5 -2 9 1 9 6 0 6 6 17 13 24 7 7 33 42 58 78 25 36 68 96 95 133 27 38 53 77
59 88 5 10 13 19 17 19 5 0 8 5 8 11 0 6 6 16 13 23 6 8 19 24 27 36 8 12 37
52 63 89 27 36 56 78 65 94 9 15 20 27 24 27 4 0 8 6 8 13 0 7 8 22 18 33 10
10 42 54 71 97 30 43 57 79 61 82 3 2 6 -196 6 -441 l-1 -444 173 0 172 0 0
738 0 738 -181 -1 c-107 -1 -183 -5 -187 -11 -12 -17 -165 -234 -197 -278 -16
-23 -50 -71 -74 -107 -25 -35 -48 -65 -53 -67 -4 -2 -8 -8 -8 -14 0 -6 -10
-23 -22 -38 -13 -15 -29 -36 -36 -46 -20 -31 -108 -156 -140 -199 -16 -22 -36
-50 -43 -62 -8 -13 -17 -23 -20 -23 -4 0 -20 20 -36 45 -15 25 -31 45 -35 45
-5 0 -8 5 -8 10 0 6 -5 16 -10 23 -6 7 -33 44 -60 82 -27 39 -54 75 -60 82 -5
7 -10 16 -10 22 0 5 -3 11 -8 13 -6 3 -198 270 -227 316 -5 9 -15 22 -22 29
-7 8 -20 27 -30 43 -9 17 -21 30 -25 30 -4 0 -8 5 -8 11 0 6 -12 27 -27 47
-15 20 -29 39 -30 41 -5 7 -343 7 -356 0z"/>
<path d="M9334 6971 c-2 -2 -4 -336 -4 -742 l0 -738 785 0 c596 0 785 3 786
12 0 7 1 84 2 172 l0 160 -141 0 c-78 0 -142 3 -142 8 0 4 -6 5 -12 0 -18 -10
-108 -11 -108 0 0 4 -6 5 -12 0 -18 -11 -508 -10 -508 1 0 5 -5 4 -12 -1 -7
-5 -51 -8 -98 -6 -47 1 -89 3 -95 3 -5 0 -29 -1 -53 -3 -23 -2 -45 0 -48 4 -4
7 -8 148 -5 201 1 17 38 18 578 20 l577 3 1 155 c0 85 -1 162 -3 170 -3 14
-72 15 -578 15 l-574 0 -1 25 c0 14 -1 64 -2 112 l-2 88 618 0 617 0 1 23 c1
27 1 298 0 312 -1 10 -1557 15 -1567 6z"/>
<path d="M12140 6972 c-7 -3 -10 -257 -10 -738 l0 -734 740 0 c585 0 740 3
741 13 4 59 -1 320 -6 325 -4 4 -257 8 -563 8 -306 1 -559 2 -563 3 -3 0 -5
247 -4 549 0 301 -1 554 -3 562 -3 13 -28 15 -163 15 -87 0 -163 -1 -169 -3z"/>
<path d="M13981 6970 c-4 -3 -7 -335 -7 -737 l0 -733 172 0 173 0 -2 70 c-1
39 2 70 7 70 5 0 4 6 -1 13 -5 6 -7 44 -5 82 1 39 2 84 1 100 -4 95 -4 143 3
163 4 12 4 22 0 22 -9 0 -7 134 2 149 4 6 4 11 -1 11 -10 0 -8 133 1 149 4 6
4 11 -1 11 -10 0 -8 133 1 149 4 6 4 11 -1 11 -4 0 -7 78 -5 172 2 166 2 207
-2 273 l-1 29 -163 1 c-90 0 -167 -2 -171 -5z"/>
<path d="M14679 6945 c-3 -159 0 -1435 4 -1442 3 -4 81 -6 173 -3 l169 5 -1
488 c0 268 3 487 7 487 3 0 28 -26 55 -57 27 -31 58 -66 69 -78 11 -11 49 -54
85 -95 35 -41 74 -84 85 -95 11 -11 33 -36 49 -55 15 -19 47 -55 70 -80 22
-25 73 -81 111 -125 39 -44 78 -89 88 -100 11 -11 42 -47 70 -79 29 -32 66
-74 82 -91 17 -18 48 -54 70 -79 l39 -46 177 0 177 0 -2 737 -1 737 -170 1
-170 0 -2 -485 c0 -267 -2 -487 -2 -490 -1 -3 -24 20 -52 50 -69 75 -174 191
-196 216 -20 23 -155 172 -193 214 -14 15 -54 60 -90 100 -36 41 -81 91 -100
111 -19 21 -64 70 -100 110 -36 40 -86 95 -112 123 l-46 51 -171 0 -171 0 -1
-30z"/>
<path d="M16614 6971 c-2 -2 -4 -334 -4 -738 l0 -733 173 0 172 0 0 280 0 280
113 0 113 0 226 -222 c123 -123 251 -249 283 -280 l58 -58 231 0 c127 0 231 3
231 6 0 5 -467 472 -557 556 -16 15 -62 60 -102 102 l-75 75 81 83 c44 46 106
110 138 143 84 89 361 378 428 447 31 33 57 61 57 62 0 1 -107 1 -237 1 l-238
0 -30 -34 c-16 -19 -48 -54 -70 -77 -22 -23 -94 -99 -160 -169 -66 -70 -148
-157 -182 -193 -35 -36 -63 -69 -63 -73 0 -19 -142 -31 -235 -20 -14 1 -14
124 0 133 7 5 7 8 0 8 -7 0 -10 74 -10 210 0 135 -3 210 -10 211 -31 4 -327 3
-331 0z"/>
</g>
</svg>
